<svg width="30" height="30" viewBox="0 0 30 30" fill="none" xmlns="http://www.w3.org/2000/svg">
<path d="M22.3266 22.1789C22.3266 22.3654 22.2525 22.5442 22.1206 22.6761C21.9888 22.808 21.8099 22.882 21.6234 22.882H8.40469C8.21821 22.882 8.03937 22.808 7.9075 22.6761C7.77564 22.5442 7.70156 22.3654 7.70156 22.1789V14.4445C7.70006 14.3491 7.71799 14.2544 7.75425 14.1662C7.79052 14.078 7.84436 13.998 7.9125 13.9313L14.5078 7.33594C14.5737 7.26344 14.654 7.20551 14.7436 7.16586C14.8332 7.12622 14.9301 7.10574 15.0281 7.10574C15.1261 7.10574 15.223 7.12622 15.3126 7.16586C15.4022 7.20551 15.4825 7.26344 15.5484 7.33594L22.1438 13.9313C22.2119 13.998 22.2657 14.078 22.302 14.1662C22.3383 14.2544 22.3562 14.3491 22.3547 14.4445L22.3266 22.1789Z" stroke="#4F4F4F" stroke-width="1.125" stroke-linecap="round" stroke-linejoin="round"/>
<path d="M22.3266 22.1789C22.3266 22.3654 22.2525 22.5442 22.1206 22.6761C21.9888 22.808 21.8099 22.882 21.6234 22.882H8.40469C8.21821 22.882 8.03937 22.808 7.9075 22.6761C7.77564 22.5442 7.70156 22.3654 7.70156 22.1789V14.4445C7.70006 14.3491 7.71799 14.2544 7.75425 14.1662C7.79052 14.078 7.84436 13.998 7.9125 13.9313L14.5078 7.33594C14.5737 7.26344 14.654 7.20551 14.7436 7.16586C14.8332 7.12622 14.9301 7.10574 15.0281 7.10574C15.1261 7.10574 15.223 7.12622 15.3126 7.16586C15.4022 7.20551 15.4825 7.26344 15.5484 7.33594L22.1438 13.9313C22.2119 13.998 22.2657 14.078 22.302 14.1662C22.3383 14.2544 22.3562 14.3491 22.3547 14.4445L22.3266 22.1789Z" stroke="white" stroke-width="1.125" stroke-linecap="round" stroke-linejoin="round"/>
<path d="M19.3945 19.9781H10.6055V15.2813L15 10.9852L19.3945 15.2813V19.9781Z" stroke="#4F4F4F" stroke-width="1.125" stroke-linecap="round" stroke-linejoin="round"/>
<path d="M19.3945 19.9781H10.6055V15.2813L15 10.9852L19.3945 15.2813V19.9781Z" stroke="white" stroke-width="1.125" stroke-linecap="round" stroke-linejoin="round"/>
<path d="M7.67346 18.143L17.1235 8.91095" stroke="#4F4F4F" stroke-width="1.125" stroke-linecap="round" stroke-linejoin="round"/>
<path d="M7.67346 18.143L17.1235 8.91095" stroke="white" stroke-width="1.125" stroke-linecap="round" stroke-linejoin="round"/>
<path d="M10.6055 19.9781V22.9101" stroke="#4F4F4F" stroke-width="1.125" stroke-linecap="round" stroke-linejoin="round"/>
<path d="M10.6055 19.9781V22.9101" stroke="white" stroke-width="1.125" stroke-linecap="round" stroke-linejoin="round"/>
<path d="M19.3945 19.9781V22.9101" stroke="#4F4F4F" stroke-width="1.125" stroke-linecap="round" stroke-linejoin="round"/>
<path d="M19.3945 19.9781V22.9101" stroke="white" stroke-width="1.125" stroke-linecap="round" stroke-linejoin="round"/>
</svg>
