<svg width="30" height="30" viewBox="0 0 30 30" fill="none" xmlns="http://www.w3.org/2000/svg">
<rect width="30" height="30" rx="8" fill="#EDEDED"/>
<g clip-path="url(#clip0_113_21)">
<path d="M23.9999 11.4966C23.9995 10.8862 23.7568 10.3009 23.3252 9.86926C22.8935 9.43762 22.3082 9.19494 21.6978 9.1945H14.0925C13.8946 8.83426 13.604 8.53353 13.2507 8.32348C12.8974 8.11342 12.4944 8.00171 12.0834 7.99991H8.30372C7.69351 8.00013 7.1083 8.24234 6.67642 8.67344C6.24455 9.10453 6.00127 9.6893 5.99994 10.2995V20.0102C6.00127 20.6204 6.24455 21.2052 6.67642 21.6363C7.1083 22.0674 7.69351 22.3096 8.30372 22.3098H21.6978C22.3082 22.3092 22.8933 22.0664 23.3249 21.6348C23.7565 21.2032 23.9993 20.6181 23.9999 20.0077V12.5129V12.5045V11.4966ZM21.6978 10.4502C21.9753 10.4504 22.2413 10.5607 22.4375 10.7569C22.6337 10.9531 22.744 11.2191 22.7442 11.4966V11.885H16.0104C15.8099 11.8848 15.6137 11.8271 15.445 11.7188C15.2763 11.6105 15.1422 11.4561 15.0585 11.2739L14.681 10.4502H21.6978ZM22.7459 20.0102C22.7448 20.2875 22.6339 20.553 22.4375 20.7486C22.241 20.9443 21.9751 21.0541 21.6978 21.0541H8.30372C8.02633 21.0537 7.76043 20.9433 7.56429 20.7472C7.36814 20.551 7.25775 20.2851 7.25731 20.0077V10.2995C7.25842 10.0226 7.3691 9.7573 7.56517 9.56169C7.76124 9.36609 8.02677 9.25605 8.30372 9.25561H12.0817C12.282 9.25592 12.4781 9.31366 12.6466 9.42196C12.8152 9.53027 12.9492 9.68461 13.0327 9.86671L13.9175 11.7963C14.1014 12.197 14.3962 12.5366 14.7672 12.7748C15.1381 13.0131 15.5695 13.1401 16.0104 13.1407H22.7459V20.0102Z" fill="#4F4F4F"/>
</g>
<defs>
<clipPath id="clip0_113_21">
<rect width="18" height="18" fill="white" transform="translate(6 6)"/>
</clipPath>
</defs>
</svg>
